<?xml version="1.0" encoding="UTF-8" standalone="no"?>
<!-- Created with Inkscape (http://www.inkscape.org/) -->

<svg
   xmlns:dc="http://purl.org/dc/elements/1.1/"
   xmlns:cc="http://creativecommons.org/ns#"
   xmlns:rdf="http://www.w3.org/1999/02/22-rdf-syntax-ns#"
   xmlns:svg="http://www.w3.org/2000/svg"
   xmlns="http://www.w3.org/2000/svg"
   xmlns:sodipodi="http://sodipodi.sourceforge.net/DTD/sodipodi-0.dtd"
   xmlns:inkscape="http://www.inkscape.org/namespaces/inkscape"
   width="210mm"
   height="297mm"
   viewBox="0 0 210 297"
   version="1.1"
   id="svg8"
   inkscape:version="0.92.2 (5c3e80d, 2017-08-06)"
   sodipodi:docname="img1.svg">
  <defs
     id="defs2" />
  <sodipodi:namedview
     id="base"
     pagecolor="#ffffff"
     bordercolor="#666666"
     borderopacity="1.0"
     inkscape:pageopacity="0.0"
     inkscape:pageshadow="2"
     inkscape:zoom="0.7"
     inkscape:cx="69.635332"
     inkscape:cy="262.04894"
     inkscape:document-units="mm"
     inkscape:current-layer="layer1"
     showgrid="false"
     inkscape:measure-start="-422.857,745.714"
     inkscape:measure-end="314.286,778.571"
     inkscape:window-width="1366"
     inkscape:window-height="705"
     inkscape:window-x="-8"
     inkscape:window-y="-8"
     inkscape:window-maximized="1" />
  <metadata
     id="metadata5">
    <rdf:RDF>
      <cc:Work
         rdf:about="">
        <dc:format>image/svg+xml</dc:format>
        <dc:type
           rdf:resource="http://purl.org/dc/dcmitype/StillImage" />
        <dc:title />
      </cc:Work>
    </rdf:RDF>
  </metadata>
  <g
     inkscape:label="Capa 1"
     inkscape:groupmode="layer"
     id="layer1">
    <path
       style="fill:#911b1b;stroke-width:0.26458332;fill-opacity:0.24242425"
       id="path3699"
       d="m 34.532096,121.90358 c 0.319045,2.47793 1.426379,4.70581 2.615533,6.86365 1.012746,1.80497 2.238306,3.47389 3.512177,5.10138 0.992378,1.01735 2.114172,1.92551 3.484928,2.34843 1.500454,0.73033 3.043663,1.37372 4.556993,2.07877 1.889701,0.62091 3.653512,1.45326 5.362196,2.45674 1.563307,1.04913 3.105383,2.12837 4.754422,3.04003 1.326248,0.6904 2.753368,1.19504 3.966004,2.07796 1.205817,1.02552 2.53819,1.89077 3.764888,2.88824 1.133118,0.87301 2.538098,1.24454 3.818806,1.84506 1.304335,0.51674 2.53705,1.25523 3.576272,2.19946 0.902213,1.04097 1.636646,2.19024 2.283391,3.40395 0.714047,1.6146 1.195576,3.31365 1.836751,4.95752 0.751009,1.45513 1.254334,2.98407 1.538608,4.59207 0.236828,1.99678 0.195984,4.01279 0.209068,6.01994 0.07144,2.47105 -0.174694,4.9315 -0.537731,7.37212 -0.489228,2.63288 -1.482564,5.12375 -2.535955,7.57189 -0.754885,1.90506 -1.64624,3.72249 -2.758138,5.44183 -1.130993,1.83566 -2.621217,3.38454 -4.096472,4.93911 -1.961214,2.18355 -4.142544,4.12464 -6.383311,6.01149 -1.959269,1.62142 -4.02843,3.10128 -6.03259,4.66542 -1.290008,1.12327 -2.567646,2.2611 -3.825491,3.42015 -1.397299,1.29401 -2.635713,2.74214 -3.918609,4.14606 -1.241602,1.27559 -2.145276,2.77137 -2.928313,4.35469 -0.899107,1.57892 -1.341271,3.27196 -1.575798,5.05793 -0.17037,2.05179 -0.284088,4.12395 -0.137774,6.18003 0.121135,1.99776 1.007536,3.71943 2.102221,5.34659 1.253508,1.49348 2.851787,2.68289 4.501454,3.70599 2.082961,1.48811 4.31904,2.65768 6.641759,3.7205 1.963208,0.60376 3.731442,1.68081 5.662551,2.36598 0.332142,0.11785 2.885734,0.87847 3.194442,0.97099 2.893668,1.08661 5.937181,1.63945 8.966604,2.19091 3.013734,0.69569 6.045952,1.28836 9.076788,1.90132 3.978831,0.97208 7.984932,1.81413 12.003712,2.60255 5.610768,1.06397 11.164288,2.40716 16.566048,4.26352 4.301,1.493 8.49401,3.24741 12.77931,4.7891 2.01732,0.87222 4.24811,1.51246 5.8273,3.10921 0.94868,1.25134 1.13832,2.6493 0.72231,4.12607 -0.67476,1.524 -1.92148,2.63088 -3.14117,3.71758 -3.93899,3.29425 -8.31912,6.80503 -13.47658,7.54658 -1.48737,0.1493 -2.985,0.12602 -4.47783,0.11983 -1.51325,-0.0101 -3.02651,-0.0169 -4.53979,-0.0206 -1.76418,0.0324 -3.43402,-0.63619 -5.1373,-1.00875 -1.63172,-0.2635 -3.202955,-0.78502 -4.722592,-1.41724 -1.459074,-0.36822 -2.93664,-0.70438 -4.418063,-1.00002 -1.700392,-0.12978 -3.298277,-0.66233 -4.915707,-1.15467 -2.010637,-0.49742 -3.949369,-1.28871 -5.811292,-2.18953 -2.212581,-0.9424 -4.470143,-1.76223 -6.731167,-2.57771 -2.357093,-0.71524 -4.634208,-1.67137 -6.883077,-2.67078 -2.601021,-1.16451 -4.924422,-2.79744 -7.191044,-4.503 -3.055355,-2.44128 -5.90999,-5.12823 -8.610984,-7.95342 -2.974054,-3.19567 -5.972267,-6.36672 -8.871195,-9.6309 -2.393842,-2.89641 -4.909823,-5.68328 -7.312226,-8.57245 -2.282331,-2.88395 -4.142889,-6.01375 -5.765957,-9.30605 -1.794756,-4.55636 -2.929858,-9.34841 -3.856683,-14.1473 -0.541588,-3.65092 -0.970302,-7.35249 -0.847364,-11.05146 0.09951,-2.99402 0.307334,-3.77924 0.754358,-6.80022 1.160579,-5.59883 2.99761,-11.06907 5.455147,-16.2344 1.595068,-3.35256 2.559736,-4.84244 4.427974,-8.02907 4.274416,-7.04153 9.71468,-13.17467 15.688424,-18.79705 5.007335,-4.65161 10.494706,-8.70516 16.224499,-12.40996 5.476377,-3.50901 11.221283,-6.5903 16.827142,-9.8776 2.593007,-1.52055 -10.467983,5.91452 -7.828174,4.47676 3.72903,-2.031 7.397557,-4.17117 11.096334,-6.25675 4.422627,-2.15133 9.154152,-3.52612 13.787447,-5.13991 7.774,-2.65835 15.39817,-5.71927 23.08121,-8.62321 4.12183,-1.44115 8.04149,-3.36623 12.06365,-5.04056 1.5353,-0.3785 2.94933,-0.94655 4.33293,-1.70123 -16.74904,9.24479 -9.30428,5.79707 -6.06787,3.16841 0.87319,-0.70922 1.71057,-1.52082 2.53015,-2.28549 4.7064,-4.48823 8.53906,-9.81079 12.23906,-15.132444 4.53517,-6.429052 8.1683,-13.377204 11.11424,-20.655439 2.09782,-5.827659 3.37952,-11.896732 4.7611,-17.921472 0.63338,-2.543387 0.32865,-1.30501 0.91526,-3.714856 0,0 9.90538,-4.745429 9.90538,-4.745429 v 0 c -0.6252,2.443178 -0.29263,1.193641 -1.00147,3.747606 -1.55302,6.093418 -2.92783,12.242675 -4.9854,18.193628 -2.86871,7.368924 -6.49582,14.381361 -11.03314,20.875964 -3.56536,5.302562 -7.29565,10.585712 -11.76227,15.172062 -1.0901,1.07464 -2.16839,2.24205 -3.37182,3.1956 -3.54692,2.81046 -9.46226,4.16915 -11.97386,7.09597 -1.39633,0.66375 -2.88271,1.03611 -4.32193,1.59104 -3.85988,1.65571 -7.73947,3.25984 -11.69011,4.69181 -7.71403,2.88823 -15.37412,5.92092 -23.148415,8.64709 -4.699119,1.67271 -9.477705,3.17395 -13.9399,5.43467 2.57099,-1.51967 10.313831,-6.02695 7.712966,-4.559 -3.678309,2.07607 -7.312173,4.23023 -10.945762,6.38361 -2.560635,1.51752 5.152004,-2.98256 7.726783,-4.47594 0.600845,-0.34849 -1.202978,0.69475 -1.804964,1.04126 -2.813507,1.61949 -1.291357,0.70461 -4.169409,2.50567 -5.81841,3.65653 -11.410212,7.64931 -16.484471,12.30385 -6.024102,5.55463 -11.565387,11.58548 -15.920034,18.57038 -1.827694,3.03517 -2.932636,4.71914 -4.490143,7.91587 -2.455709,5.04026 -4.234797,10.41144 -5.389393,15.89216 -0.41207,2.79702 -0.649423,3.82415 -0.737026,6.60407 -0.114322,3.6277 0.335333,7.2594 0.833935,10.84301 0.870653,4.70607 2.027094,9.37988 3.813106,13.83033 1.605023,3.2078 3.446491,6.25011 5.695651,9.05404 2.377088,2.88737 4.802116,5.73072 7.215399,8.58773 2.878944,3.25971 5.848262,6.4351 8.836956,9.59451 2.704068,2.75362 5.527937,5.4049 8.605393,7.74109 2.249265,1.61675 4.548515,3.1696 7.109386,4.25945 2.249257,0.95217 4.509063,1.88329 6.844196,2.6074 2.29769,0.80936 4.570603,1.69013 6.810481,2.6484 1.863889,0.82942 3.776871,1.54644 5.760185,2.03626 1.599057,0.48591 3.22135,0.81254 4.87271,1.06709 1.52813,0.34245 3.09674,0.58386 4.56009,1.15044 1.46685,0.60007 3.01139,0.99597 4.56498,1.29974 1.65594,0.39555 3.30508,0.88802 5.02997,0.78073 1.51259,0.005 3.02516,0.0161 4.53776,0.0167 1.45144,-0.009 2.91964,0 4.34407,-0.31599 3.66096,-1.084 8.35836,-4.65987 -7.68853,4.75398 -0.20841,0.12226 0.43807,-0.20662 0.64315,-0.33441 0.55076,-0.34319 0.75897,-0.58073 1.23876,-1.02539 1.23074,-0.89858 2.45064,-1.97297 3.29875,-3.24173 0.72731,-0.8877 0.60888,-1.99075 -0.0632,-2.90065 -1.50222,-1.39632 -3.57852,-1.98613 -5.40299,-2.82988 -4.20662,-1.602 -8.31913,-3.43318 -12.58074,-4.88461 -5.403675,-1.78513 -10.931384,-3.13643 -16.541308,-4.10253 -4.063976,-0.76177 -8.114088,-1.58872 -12.145544,-2.50852 -3.041983,-0.57506 -6.060273,-1.25207 -9.091409,-1.88083 -3.046825,-0.58898 -6.087766,-1.21264 -9.001334,-2.31142 -3.084263,-0.93901 -6.019101,-2.19529 -8.996092,-3.425 -2.365769,-1.08666 -4.601644,-2.3688 -6.76084,-3.8246 -1.758643,-1.14764 -3.488227,-2.38526 -4.753882,-4.08989 -1.18513,-1.7727 -2.21524,-3.66 -2.385171,-5.82974 -0.21975,-2.11884 -0.06275,-4.25601 0.03444,-6.37982 0.182724,-1.86063 0.42005,-3.72486 1.393947,-5.36455 0.727027,-1.69102 1.592255,-3.29818 2.818937,-4.68673 1.290005,-1.39225 2.492729,-2.87381 3.874833,-4.17314 1.166096,-1.28124 2.57052,-2.3136 3.801163,-3.52832 1.940465,-1.69831 4.15684,-3.05682 6.146612,-4.6988 2.20581,-1.87469 4.453814,-3.68655 6.380239,-5.86003 1.391116,-1.56346 2.990975,-2.95796 4.089641,-4.76 1.183426,-1.65093 2.186099,-3.36779 2.919196,-5.2715 0.99355,-2.40532 2.141601,-4.76269 2.662311,-7.33549 0.402273,-2.37388 0.655434,-4.78157 0.57521,-7.19187 0.0021,-1.94602 0.0081,-3.89787 -0.181962,-5.83654 -0.2227,-1.54674 -0.675759,-3.01068 -1.412719,-4.39659 -0.608203,-1.60534 -1.117806,-3.24402 -1.767525,-4.83177 -0.59459,-1.08344 -1.296133,-2.10355 -2.116304,-3.03017 -1.014471,-0.82181 -2.148102,-1.47146 -3.367829,-1.94149 -1.383125,-0.57943 -2.818312,-1.09115 -3.970223,-2.08752 -1.226683,-0.95926 -2.505298,-1.85073 -3.740034,-2.80007 -1.23943,-0.76882 -2.611847,-1.30781 -3.875175,-2.0388 -1.622311,-0.96763 -3.183434,-2.02928 -4.777808,-3.04144 -1.667881,-0.99427 -3.466666,-1.6717 -5.277012,-2.36541 -1.523743,-0.66525 -3.035077,-1.35987 -4.57011,-1.99652 -1.455891,-0.66433 -2.707156,-1.68746 -3.761277,-2.88854 -1.300626,-1.68209 -2.525702,-3.42839 -3.559453,-5.28887 -1.203949,-2.28532 -2.337153,-4.61375 -2.904834,-7.15311 0,0 9.919057,-5.23261 9.919057,-5.23261 z"
       inkscape:connector-curvature="0" />
    <flowRoot
       xml:space="preserve"
       id="flowRoot4592"
       style="font-style:normal;font-weight:normal;font-size:40px;line-height:1.25;font-family:sans-serif;letter-spacing:0px;word-spacing:0px;fill:#000000;fill-opacity:1;stroke:none"
       transform="scale(0.26458333)"><flowRegion
         id="flowRegion4594"><rect
           id="rect4596"
           width="520"
           height="148.57143"
           x="37.142857"
           y="202.51968" /></flowRegion><flowPara
         id="flowPara4598">domeneche </flowPara></flowRoot>    <flowRoot
       transform="matrix(0.28769262,0,0,0.55724694,39.914344,90.51236)"
       style="font-style:normal;font-weight:normal;font-size:40px;line-height:1.25;font-family:sans-serif;letter-spacing:0px;word-spacing:0px;fill:#000000;fill-opacity:1;stroke:none"
       id="flowRoot4606"
       xml:space="preserve"><flowRegion
         id="flowRegion4602"><rect
           y="202.51968"
           x="37.142857"
           height="148.57143"
           width="520"
           id="rect4600" /></flowRegion><flowPara
         id="flowPara4604">domeneche </flowPara></flowRoot>    <text
       xml:space="preserve"
       style="font-style:normal;font-weight:normal;font-size:10.58333302px;line-height:1.25;font-family:sans-serif;letter-spacing:0px;word-spacing:0px;fill:#000000;fill-opacity:1;stroke:none;stroke-width:0.26458332"
       x="83.910713"
       y="67.190475"
       id="text4610"><tspan
         sodipodi:role="line"
         id="tspan4608"
         x="83.910713"
         y="76.84597"
         style="stroke-width:0.26458332" /><tspan
         sodipodi:role="line"
         x="83.910713"
         y="90.075134"
         style="stroke-width:0.26458332"
         id="tspan4612" /></text>
    <flowRoot
       xml:space="preserve"
       id="flowRoot4614"
       style="font-style:normal;font-weight:normal;font-size:40px;line-height:1.25;font-family:sans-serif;letter-spacing:0px;word-spacing:0px;fill:#000000;fill-opacity:1;stroke:none"
       transform="matrix(0.26458333,0,0,0.26458333,-59.720238,-44.979166)"><flowRegion
         id="flowRegion4616"><rect
           id="rect4618"
           width="279.70206"
           height="99.075844"
           x="503.15509"
           y="1020.5867" /></flowRegion><flowPara
         id="flowPara4620">2017</flowPara></flowRoot>  </g>
</svg>
