<?xml version="1.0" encoding="UTF-8" standalone="no"?>
<!-- Created with Inkscape (http://www.inkscape.org/) -->

<svg
   xmlns:dc="http://purl.org/dc/elements/1.1/"
   xmlns:cc="http://creativecommons.org/ns#"
   xmlns:rdf="http://www.w3.org/1999/02/22-rdf-syntax-ns#"
   xmlns:svg="http://www.w3.org/2000/svg"
   xmlns="http://www.w3.org/2000/svg"
   xmlns:sodipodi="http://sodipodi.sourceforge.net/DTD/sodipodi-0.dtd"
   xmlns:inkscape="http://www.inkscape.org/namespaces/inkscape"
   width="210mm"
   height="297mm"
   viewBox="0 0 210 297"
   version="1.1"
   id="svg8"
   inkscape:version="0.92.2 (5c3e80d, 2017-08-06)"
   sodipodi:docname="img2.svg">
  <defs
     id="defs2">
    <inkscape:perspective
       sodipodi:type="inkscape:persp3d"
       inkscape:vp_x="0 : 148.5 : 1"
       inkscape:vp_y="0 : 1000 : 0"
       inkscape:vp_z="210 : 148.5 : 1"
       inkscape:persp3d-origin="105 : 99 : 1"
       id="perspective3725" />
  </defs>
  <sodipodi:namedview
     id="base"
     pagecolor="#ffffff"
     bordercolor="#666666"
     borderopacity="1.0"
     inkscape:pageopacity="0.0"
     inkscape:pageshadow="2"
     inkscape:zoom="0.47749719"
     inkscape:cx="640.83088"
     inkscape:cy="561.25984"
     inkscape:document-units="mm"
     inkscape:current-layer="layer1"
     showgrid="false"
     inkscape:snap-global="true"
     inkscape:window-width="1366"
     inkscape:window-height="705"
     inkscape:window-x="-8"
     inkscape:window-y="-8"
     inkscape:window-maximized="1" />
  <metadata
     id="metadata5">
    <rdf:RDF>
      <cc:Work
         rdf:about="">
        <dc:format>image/svg+xml</dc:format>
        <dc:type
           rdf:resource="http://purl.org/dc/dcmitype/StillImage" />
        <dc:title></dc:title>
      </cc:Work>
    </rdf:RDF>
  </metadata>
  <g
     inkscape:label="Capa 1"
     inkscape:groupmode="layer"
     id="layer1">
    <text
       xml:space="preserve"
       style="font-style:normal;font-weight:normal;font-size:59.68802643px;line-height:1.25;font-family:sans-serif;letter-spacing:0px;word-spacing:0px;fill:#000000;fill-opacity:1;stroke:none;stroke-width:1.49220061"
       x="31.855511"
       y="151.60818"
       id="text3701"
       transform="scale(0.91935521,1.0877189)"><tspan
         sodipodi:role="line"
         id="tspan3699"
         x="31.855511"
         y="151.60818"
         style="stroke-width:1.49220061">JRDM</tspan></text>
    <flowRoot
       xml:space="preserve"
       id="flowRoot3703"
       style="fill:black;fill-opacity:1;stroke:none;font-family:sans-serif;font-style:normal;font-weight:normal;font-size:40px;line-height:1.25;letter-spacing:0px;word-spacing:0px"><flowRegion
         id="flowRegion3705"><rect
           id="rect3707"
           width="97.14286"
           height="82.85714"
           x="88.571426"
           y="473.94824" /></flowRegion><flowPara
         id="flowPara3709"></flowPara></flowRoot>    <flowRoot
       xml:space="preserve"
       id="flowRoot3711"
       style="fill:black;fill-opacity:1;stroke:none;font-family:sans-serif;font-style:normal;font-weight:normal;font-size:40px;line-height:1.25;letter-spacing:0px;word-spacing:0px"><flowRegion
         id="flowRegion3713"><rect
           id="rect3715"
           width="77.14286"
           height="57.142857"
           x="108.57143"
           y="473.94824" /></flowRegion><flowPara
         id="flowPara3717"></flowPara></flowRoot>    <g
       sodipodi:type="inkscape:box3d"
       id="g3727"
       style="fill:#000000;fill-opacity:0"
       inkscape:perspectiveID="#perspective3725"
       inkscape:corner0="3.7895739 : 0.59824834 : 0 : 1"
       inkscape:corner7="0.32283468 : 0.16405907 : 0.25 : 1">
      <path
         sodipodi:type="inkscape:box3dside"
         id="path3729"
         style="fill:#353564;fill-rule:evenodd;stroke:none;stroke-linejoin:round"
         inkscape:box3dsidetype="6"
         d="m 21.922619,33.928576 v 90.653004 l 9.330024,1.18653 V 39.612163 Z"
         points="21.922619,124.58158 31.252643,125.76811 31.252643,39.612163 21.922619,33.928576 " />
      <path
         sodipodi:type="inkscape:box3dside"
         id="path3739"
         style="fill:#e9e9ff;fill-rule:evenodd;stroke:none;stroke-linejoin:round"
         inkscape:box3dsidetype="11"
         d="M 31.252643,39.612163 100.13767,-200.39129 V 75.663953 L 31.252643,125.76811 Z"
         points="100.13767,-200.39129 100.13767,75.663953 31.252643,125.76811 31.252643,39.612163 " />
      <path
         sodipodi:type="inkscape:box3dside"
         id="path3731"
         style="fill:#4d4d9f;fill-rule:evenodd;stroke:none;stroke-linejoin:round"
         inkscape:box3dsidetype="5"
         d="M 21.922619,33.928576 79.375,-266.32759 l 20.76267,65.9363 -68.885027,240.003453 z"
         points="79.375,-266.32759 100.13767,-200.39129 31.252643,39.612163 21.922619,33.928576 " />
      <path
         sodipodi:type="inkscape:box3dside"
         id="path3737"
         style="fill:#afafde;fill-rule:evenodd;stroke:none;stroke-linejoin:round"
         inkscape:box3dsidetype="13"
         d="M 21.922619,124.58158 79.375,61.898807 100.13767,75.663953 31.252643,125.76811 Z"
         points="79.375,61.898807 100.13767,75.663953 31.252643,125.76811 21.922619,124.58158 " />
      <path
         sodipodi:type="inkscape:box3dside"
         id="path3735"
         style="fill:#d7d7ff;fill-rule:evenodd;stroke:none;stroke-linejoin:round"
         inkscape:box3dsidetype="14"
         d="M 79.375,-266.32759 V 61.898807 l 20.76267,13.765146 V -200.39129 Z"
         points="79.375,61.898807 100.13767,75.663953 100.13767,-200.39129 79.375,-266.32759 " />
      <path
         sodipodi:type="inkscape:box3dside"
         id="path3733"
         style="fill:#8686bf;fill-rule:evenodd;stroke:none;stroke-linejoin:round"
         inkscape:box3dsidetype="3"
         d="M 21.922619,33.928576 79.375,-266.32759 V 61.898807 L 21.922619,124.58158 Z"
         points="79.375,-266.32759 79.375,61.898807 21.922619,124.58158 21.922619,33.928576 " />
    </g>
    <g
       sodipodi:type="inkscape:box3d"
       id="g3741"
       style="fill:#000000;fill-opacity:0"
       inkscape:perspectiveID="#perspective3725"
       inkscape:corner0="1.7563827 : 0.40447057 : 0 : 1"
       inkscape:corner7="-2.2394904 : -0.18114234 : 0.25 : 1">
      <path
         sodipodi:type="inkscape:box3dside"
         id="path3743"
         style="fill:#353564;fill-rule:evenodd;stroke:none;stroke-linejoin:round"
         inkscape:box3dsidetype="6"
         d="m 38.093405,19.7187 v 212.45703 l 14.295136,-6.95817 V 30.427691 Z"
         points="38.093405,232.17573 52.388541,225.21756 52.388541,30.427691 38.093405,19.7187 " />
      <path
         sodipodi:type="inkscape:box3dside"
         id="path3747"
         style="fill:#8686bf;fill-rule:evenodd;stroke:none;stroke-linejoin:round"
         inkscape:box3dsidetype="3"
         d="M 38.093405,19.7187 -84.712235,434.88428 V -37.57835 l 122.80564,269.75408 z"
         points="-84.712235,434.88428 -84.712235,-37.57835 38.093405,232.17573 38.093405,19.7187 " />
      <path
         sodipodi:type="inkscape:box3dside"
         id="path3745"
         style="fill:#4d4d9f;fill-rule:evenodd;stroke:none;stroke-linejoin:round"
         inkscape:box3dsidetype="5"
         d="M 38.093405,19.7187 -84.712235,434.88428 -159.17285,507.24079 52.388541,30.427691 Z"
         points="-84.712235,434.88428 -159.17285,507.24079 52.388541,30.427691 38.093405,19.7187 " />
      <path
         sodipodi:type="inkscape:box3dside"
         id="path3753"
         style="fill:#e9e9ff;fill-rule:evenodd;stroke:none;stroke-linejoin:round"
         inkscape:box3dsidetype="11"
         d="M 52.388541,30.427691 -159.17285,507.24079 V -84.592033 L 52.388541,225.21756 Z"
         points="-159.17285,507.24079 -159.17285,-84.592033 52.388541,225.21756 52.388541,30.427691 " />
      <path
         sodipodi:type="inkscape:box3dside"
         id="path3751"
         style="fill:#afafde;fill-rule:evenodd;stroke:none;stroke-linejoin:round"
         inkscape:box3dsidetype="13"
         d="M 38.093405,232.17573 -84.712235,-37.57835 -159.17285,-84.592033 52.388541,225.21756 Z"
         points="-84.712235,-37.57835 -159.17285,-84.592033 52.388541,225.21756 38.093405,232.17573 " />
      <path
         sodipodi:type="inkscape:box3dside"
         id="path3749"
         style="fill:#d7d7ff;fill-rule:evenodd;stroke:none;stroke-linejoin:round"
         inkscape:box3dsidetype="14"
         d="M -84.712235,434.88428 V -37.57835 L -159.17285,-84.592033 V 507.24079 Z"
         points="-84.712235,-37.57835 -159.17285,-84.592033 -159.17285,507.24079 -84.712235,434.88428 " />
    </g>
    <path
       sodipodi:type="spiral"
       style="fill:none;fill-rule:evenodd;stroke:#000000;stroke-width:0.26458332"
       id="path3755"
       sodipodi:cx="59.720234"
       sodipodi:cy="61.142857"
       sodipodi:expansion="1"
       sodipodi:revolution="3"
       sodipodi:radius="75.064209"
       sodipodi:argument="-18.687719"
       sodipodi:t0="0"
       d="m 59.720234,61.142857 c 3.714421,0.606432 1.015105,5.306158 -1.007931,6.173612 C 53.229999,69.667216 48.114618,64.158739 47.37301,59.126994 46.046445,50.126382 54.302902,43.021313 62.744028,42.62202 75.131719,42.036041 84.462029,53.353955 84.414683,65.174582 84.351577,80.929618 69.872891,92.545817 54.680578,92.010918 35.562602,91.337801 21.635662,73.656224 22.678561,55.095269 23.941651,32.615466 44.847734,16.364966 66.775753,17.927571 92.617164,19.769047 111.19877,43.912185 109.10913,69.206307 106.69656,98.409371 79.308433,119.32693 50.648853,116.70537 18.084015,113.72658 -5.1728028,83.088126 -2.015888,51.063544 1.5256932,15.136802 35.418233,-10.461635 70.807478,-6.7668776 110.09625,-2.664996 138.03805,34.484384 133.80358,73.238032"
       transform="matrix(1.4913398,0,0,2.0404884,1.2298673,7.5081276)" />
    <path
       sodipodi:type="spiral"
       style="fill:none;fill-rule:evenodd;stroke:#000000;stroke-width:0.26458332"
       id="path3757"
       sodipodi:cx="59.72023"
       sodipodi:cy="61.142857"
       sodipodi:expansion="1"
       sodipodi:revolution="3"
       sodipodi:radius="87.992989"
       sodipodi:argument="-17.923979"
       sodipodi:t0="0"
       d="m 59.72023,61.142857 c 2.653157,3.524909 -3.442533,5.315468 -5.858631,4.409721 -6.547477,-2.454519 -6.412421,-11.265585 -2.960812,-16.126984 6.174119,-8.695903 18.924911,-8.017494 26.395338,-1.511902 10.963151,9.547216 9.686666,26.694116 0.06299,36.663691 C 64.532272,97.865258 42.856009,95.961527 30.427072,83.191465 14.786524,67.121645 17.330609,40.860212 33.2619,25.991067 52.556829,7.9825414 83.432126,11.173652 100.73065,30.274805 121.11636,52.784853 117.27444,88.290759 94.998003,108.01191 69.278972,130.78076 29.131811,126.2857 6.9925463,100.83035 -18.163493,71.90637 -13.013768,27.110756 15.623014,2.5565412 47.749154,-24.989577 97.19832,-19.184134 124.16518,12.635918 154.1035,47.962207 147.64159,102.06867 112.63689,131.44644"
       transform="matrix(1.4436374,0,0,1.9333552,4.0786713,14.058556)" />
    <path
       style="fill:#000000;fill-opacity:0;stroke-width:0.26458332"
       id="path3759"
       d="m 15.610579,278.34248 c 3.397922,-3.9802 7.889146,-5.65808 12.718853,-8.32577 0.398462,-0.22008 0.877782,-0.24337 1.308849,-0.38965 0.469968,-0.15947 0.928322,-0.35129 1.392483,-0.52695 3.059002,-0.92623 6.135301,-1.65169 9.163418,-2.68401 2.315556,-0.8694 4.771308,-1.14811 7.181844,-1.62634 2.750516,-0.35616 5.524111,-0.44093 8.293489,-0.50805 1.846601,0.0451 3.719484,-0.18324 5.556658,0.0971 0.145849,0.0222 3.487838,0.74904 3.582823,0.76962 2.757567,0.68001 5.429679,1.67579 7.904962,3.06959 1.486013,1.00439 3.025735,1.92082 4.560456,2.84811 1.965859,1.02579 3.885768,2.08462 5.964409,2.8697 2.923715,1.04825 6.013178,1.38136 9.091758,1.58014 2.615292,0.0114 5.156192,0.72898 7.616272,1.55705 3.394787,1.10945 6.855297,1.99493 10.377937,2.58257 0.95938,-0.036 1.47854,0.0521 2.34602,-0.34468 0.26341,-0.12046 0.96772,-0.63478 0.71333,-0.49625 -2.99884,1.63317 -5.96726,3.32161 -8.95089,4.98242 0,0 10.27206,-4.38097 10.27206,-4.38097 v 0 c -5.51761,3.48398 -7.81528,7.15375 -13.40916,6.55476 -3.548109,-0.69572 -7.03636,-1.63957 -10.501187,-2.67036 -2.430912,-0.72924 -4.908484,-1.30434 -7.45939,-1.35403 -3.145713,-0.27964 -6.286455,-0.73684 -9.262935,-1.84287 -2.145932,-0.80629 -4.145939,-1.88741 -6.160299,-2.97583 -1.536679,-0.90267 -3.039973,-1.85607 -4.537041,-2.82276 -2.384382,-1.30333 -4.907242,-2.32153 -7.574563,-2.88779 -3.040308,-0.596 -5.979308,-0.80693 -9.075843,-0.60224 -2.748785,0.0724 -5.511559,0.17832 -8.220675,0.68516 -2.370188,0.4535 -4.760913,0.82063 -7.028582,1.68812 -3.027757,0.98012 -6.147287,1.63544 -9.140276,2.72383 -0.473796,0.17974 -0.952734,0.34648 -1.421387,0.53922 -0.412641,0.16971 -1.601908,0.7806 -1.221348,0.54769 15.273693,-9.34778 9.064838,-5.97524 6.241624,-3.06715 0,0 -10.323669,4.41065 -10.323669,4.41065 z"
       inkscape:connector-curvature="0" />
    <path
       style="fill:#000000;fill-opacity:0;stroke-width:0.26458332"
       id="path3761"
       d="m 29.419991,273.7767 c 2.471637,1.6211 5.311783,2.23607 8.126159,2.95757 3.067894,0.90651 6.169099,1.695 9.324737,2.22702 3.927385,1.04241 7.968038,1.41849 12.007551,1.69828 5.696262,0.31332 11.403287,0.31509 17.106291,0.33417 5.270259,0.008 10.540656,-0.003 15.810732,-0.0487 3.722886,-0.0185 7.445843,-0.0294 11.168779,-0.0265 4.19763,0.0596 8.2576,-0.75878 12.31285,-1.72416 3.79257,-1.06598 10.53772,-5.28643 -5.28107,3.51753 -0.34529,0.19216 0.67614,-0.41053 0.99816,-0.63958 0.84141,-0.59843 0.79808,-0.62643 1.46107,-1.35863 1.34425,-1.99184 2.44816,-4.12208 3.80126,-6.11267 4.50301,-6.86369 3.46234,-4.61574 13.98685,-10.57769 0.40926,-0.0337 0.81877,-0.13803 1.22776,-0.10123 3.01553,0.27135 6.62234,2.5397 9.14718,4.07275 2.37833,1.47441 4.71977,3.0149 7.37086,3.96367 0.19051,0.0682 3.04844,0.93091 3.30542,1.00869 3.58909,0.77055 7.2072,1.44598 10.83991,1.98822 3.57671,0.48334 7.18637,0.59914 10.79047,0.65907 3.44759,0.0387 6.89529,0.0364 10.34292,0.008 3.08492,-0.0611 6.17759,0.11625 9.25519,-0.12436 0.43972,-0.0908 0.87943,-0.18153 1.31915,-0.27231 0,0 -8.8548,6.65239 -8.8548,6.65239 v 0 c -0.45155,0.0531 -0.90309,0.10608 -1.35463,0.15912 -3.09687,0.12275 -6.19686,0.0501 -9.29557,0.0759 -3.44283,-0.018 -6.88592,0.006 -10.32844,-0.0482 -3.62497,-0.0874 -7.24885,-0.27033 -10.83992,-0.80606 -3.67355,-0.60351 -7.37336,-1.15681 -10.97863,-2.091 -0.87258,-0.284 -2.49687,-0.79814 -3.32256,-1.12982 -2.63123,-1.05701 -4.97389,-2.64181 -7.37037,-4.13092 -2.3314,-1.32966 -6.07671,-3.62934 -8.89167,-3.28803 -0.3734,0.0453 -0.71874,0.2221 -1.07811,0.33312 2.86126,-1.68683 5.73408,-3.35421 8.58379,-5.0605 0.29623,-0.17738 -0.64426,0.26717 -0.92169,0.47273 -1.281,0.94914 -1.80164,2.62289 -2.77659,3.82127 -1.41074,1.95066 -2.57795,4.01478 -3.71697,6.13013 -0.67305,1.01759 -1.29612,1.77739 -2.37051,2.40575 -5.01441,2.93267 -8.5445,5.87015 -13.76865,7.11748 -4.11035,0.92897 -8.256705,1.54313 -12.484567,1.54019 -3.703452,0.004 -7.406923,-0.004 -11.110357,-0.0148 -5.232291,-0.0365 -10.464752,-0.0293 -15.697139,-0.04 -5.732121,-0.0217 -11.468009,-0.0487 -17.193228,-0.35941 -4.122332,-0.28897 -8.242419,-0.69982 -12.270676,-1.66404 -3.143234,-0.63262 -6.247193,-1.44119 -9.330954,-2.31682 -2.909361,-0.75769 -5.770026,-1.58399 -8.423921,-3.0397 0,0 9.373933,-6.1677 9.373933,-6.1677 z"
       inkscape:connector-curvature="0" />
    <path
       style="fill:#000000;fill-opacity:0;stroke-width:0.26458332"
       id="path3763"
       d="m 203.86543,267.04644 c 0.26705,2.89306 0.41313,5.79467 0.53432,8.69686 0.0968,2.21752 0.28165,4.43251 -0.28938,6.59704 -0.15808,0.29183 -0.28428,0.60335 -0.47423,0.87553 -0.24658,0.3533 -1.01032,1.14694 -1.39361,1.36988 -4.24303,2.46809 -8.00788,5.4215 -12.67534,6.63615 -3.10936,0.62087 -6.30165,0.63439 -9.46056,0.68236 -4.09206,0.13245 -8.17129,-0.2499 -12.25345,-0.47104 -3.77116,-0.20476 -7.54779,-0.2417 -11.32342,-0.27141 -0.61022,-0.003 -1.22164,0.0324 -1.83065,-0.006 -0.4655,-0.0293 -3.72752,-0.46231 -4.11319,-0.50596 -3.21422,-0.36394 -6.39602,-0.80225 -9.59579,-1.2871 -9.1042,-1.59083 -18.23378,-3.03326 -27.18602,-5.35225 -1.53458,-0.43389 -3.06917,-0.86781 -4.60374,-1.3017 0,0 8.58173,-5.88597 8.58173,-5.88597 v 0 c 1.53901,0.42129 3.07802,0.84259 4.61704,1.26389 8.9802,2.23496 18.09446,3.83055 27.2502,5.16591 5.23201,0.66516 10.48926,1.36197 15.76603,1.46476 3.77871,0.0343 7.55923,0.0977 11.33164,0.33213 4.07324,0.25045 8.14928,0.56364 12.23329,0.37769 3.13941,-0.0903 6.33268,-0.13145 9.37439,-1.00163 3.92151,-1.41264 7.91627,-4.26334 -6.48624,4.26066 -0.9663,0.5719 3.11224,-1.86132 2.12771,-1.62356 0.93185,-1.9421 0.54979,-4.17851 0.57684,-6.26933 -0.0795,-2.84393 -0.17942,-5.70045 -0.62663,-8.51445 0,0 9.91906,-5.23259 9.91906,-5.23259 z"
       inkscape:connector-curvature="0" />
    <path
       sodipodi:type="star"
       style="fill:#000000;fill-opacity:0;stroke-width:0.26458332"
       id="path3767"
       sodipodi:sides="5"
       sodipodi:cx="31.030764"
       sodipodi:cy="269.10011"
       sodipodi:r1="75.481758"
       sodipodi:r2="37.740883"
       sodipodi:arg1="-0.13056609"
       sodipodi:arg2="0.49775244"
       inkscape:flatsided="false"
       inkscape:rounded="0"
       inkscape:randomized="0"
       d="m 105.87005,259.27272 -41.677962,27.84683 -0.68832,50.12011 -39.363113,-31.03295 -47.879755,14.83333 17.3502179,-47.02625 -28.9029959,-40.9526 50.086138,1.96912 30.01672,-40.14343 13.604718,48.24324 z"
       inkscape:transform-center-x="-4.2583209"
       inkscape:transform-center-y="-3.036831" />
  </g>
</svg>
